<?xml version="1.0" encoding="utf-8"?>
<!-- Generator: Adobe Illustrator 22.0.0, SVG Export Plug-In . SVG Version: 6.00 Build 0)  -->
<svg version="1.1" id="Capa_1" xmlns="http://www.w3.org/2000/svg" xmlns:xlink="http://www.w3.org/1999/xlink" x="0px" y="0px"
	 viewBox="0 0 595.3 841.9" style="enable-background:new 0 0 595.3 841.9;" xml:space="preserve">
<style type="text/css">
	.st0{clip-path:url(#SVGID_2_);fill:#123763;}
	.st1{clip-path:url(#SVGID_2_);fill:none;stroke:#000000;stroke-miterlimit:10;}
	.st2{fill:#C4C8C7;}
	.st3{fill:#EE8521;}
	.st4{clip-path:url(#SVGID_4_);fill:#EE8521;}
	.st5{fill:none;stroke:#EE8521;stroke-width:0.25;stroke-miterlimit:10;}
	.st6{clip-path:url(#SVGID_6_);}
	.st7{fill:#C4C7C4;}
	.st8{font-family:'BaskOldFace';}
	.st9{font-size:77.4491px;}
	.st10{font-size:85.0188px;}
</style>
<g>
	<defs>
		<rect id="SVGID_1_" width="595.3" height="841.9"/>
	</defs>
	<clipPath id="SVGID_2_">
		<use xlink:href="#SVGID_1_"  style="overflow:visible;"/>
	</clipPath>
	<path class="st0" d="M119.9,438.7c0,0,160.6-52.6,367.2,4.3L119.9,438.7z"/>
	<path class="st1" d="M119.9,438.7c0,0,160.6-52.6,367.2,4.3L119.9,438.7z"/>
</g>
<rect x="230.8" y="322.8" class="st2" width="2.2" height="95.8"/>
<rect x="257.4" y="299.4" class="st2" width="2.5" height="116.6"/>
<rect x="285.5" y="255.5" class="st2" width="2.5" height="160.6"/>
<rect x="318.6" y="239.3" class="st2" width="2.9" height="176.8"/>
<rect x="354.6" y="263.4" class="st2" width="2.5" height="155.2"/>
<rect x="379.8" y="271.3" class="st2" width="2.5" height="149.6"/>
<rect x="403.6" y="287.9" class="st2" width="3.6" height="136.1"/>
<polygon class="st2" points="223.9,341 258.7,309.5 285.5,322.8 288,322.8 318.6,308 321.5,309.8 355.9,333.6 357.1,331.1 
	382.3,319.6 412.2,342.6 410,346.1 382.3,324.2 357.1,335.8 354.6,342.6 321.5,318.8 318.6,312 288,327.7 258.7,313.8 226.1,343.7 
	"/>
<polygon class="st2" points="259.9,416 259.9,327.1 285.5,342.6 285.5,416 "/>
<polygon class="st2" points="280.1,271.3 321.5,251.5 358.9,276 358.9,279.2 321.5,255.5 281.5,274.2 "/>
<polygon class="st2" points="278.3,290.8 321.5,269.9 357.1,292.6 382.3,282.8 412.2,304.1 410.8,306.6 382.3,286.1 354.6,296.5 
	321.5,274.6 318.1,274.9 280.1,293.3 "/>
<polygon class="st2" points="280.1,309.8 321.5,288.2 357.1,313.1 382.3,302.6 412.2,325 410,327.1 382.3,306.6 379.8,306.6 
	357.1,316 354.6,322.8 321.5,297.6 318.1,294 282.2,313.1 "/>
<polygon class="st2" points="321.5,330.7 354.6,354.5 354.6,364.2 321.5,341 "/>
<polygon class="st2" points="321.5,352.3 354.6,375.9 354.6,386.2 321.5,362.4 "/>
<polygon class="st2" points="321.5,373.6 354.6,396.6 354.6,407 321.5,383.6 "/>
<polygon class="st2" points="321.5,394.4 354.6,416 354.6,418.6 340.6,418.6 321.5,404.2 "/>
<polygon class="st2" points="382.3,333.2 403.6,349.4 403.6,357.7 382.3,341 "/>
<polygon class="st2" points="382.3,350.5 403.6,366 403.6,373.6 382.3,359.2 "/>
<polygon class="st2" points="382.3,367.8 403.6,383.3 403.6,392.3 382.3,375.9 "/>
<polygon class="st2" points="382.3,384.4 403.6,400.6 403.6,408.8 382.3,392.3 "/>
<polygon class="st2" points="382.3,402 403.6,418.6 403.6,424 399.6,424 382.3,411 "/>
<polygon class="st3" points="182.5,424 182.5,294.4 186.8,290 207,290 211.7,293.3 212.8,418.6 212.8,420.9 208.1,420.9 
	207.4,301.6 186.5,301.9 187.2,422.5 "/>
<polygon class="st3" points="136.1,251.5 136.1,210.1 149,216.2 147.6,251.5 "/>
<polygon class="st3" points="187.9,243.6 197.6,198.6 202.3,198.6 207.7,250.1 203,250.1 199.4,213.7 193.3,244.3 "/>
<polygon class="st3" points="113.4,226.3 136.1,226.3 150.5,230.8 278.3,273.1 276.8,279.2 113.4,230.8 "/>
<polygon class="st3" points="186.8,290 187.9,243.6 193.3,244.3 193.3,276.7 202.3,276.7 202.3,252.8 207.7,252.8 207,290 "/>
<polygon class="st3" points="113.4,230.8 116.3,226.3 116.3,216.2 119.2,216.2 119.2,226.3 122,226.3 122,223.5 136.1,223.5 
	136.1,218.4 122.4,218.4 122.4,216.2 113.4,210.1 113.4,226.3 "/>
<polygon class="st3" points="148.4,230.8 197.6,198.6 202.3,198.6 278.3,247.6 275.8,252.8 202.7,206.2 196.6,205.4 150.8,233.9 "/>
<g>
	<defs>
		<rect id="SVGID_3_" width="595.3" height="841.9"/>
	</defs>
	<clipPath id="SVGID_4_">
		<use xlink:href="#SVGID_3_"  style="overflow:visible;"/>
	</clipPath>
	<path class="st4" d="M207.3,246.4l5.4-4.6l65.5,21.6l-1.8,3.4c-18.2-6-53.3-17.6-61.8-20.4c-1.2-0.4-1.8-0.6-1.9-0.6
		c-1.7,1.4-3.4,2.9-5,4.3L207.3,246.4z"/>
	<polygon class="st4" points="217.8,253.1 214.7,246.4 217.4,247.3 221.5,254.3 	"/>
	<polygon class="st4" points="225.8,250.1 229.1,256.9 231.5,257.6 229.7,251.5 	"/>
	<polygon class="st4" points="237.3,253.9 241.1,260.8 242.8,261.4 240,254.8 	"/>
	<polygon class="st4" points="248.7,257.6 253.2,264.8 255.7,265.6 252.2,258.8 	"/>
	<polygon class="st4" points="260.8,261.6 266,269.1 268,269.7 263.6,262.6 	"/>
</g>
<polygon class="st3" points="150.5,230.8 149,216.2 194.4,204 194.4,200.7 142.6,215.8 144,230.8 "/>
<polygon class="st3" points="186.5,309.8 207.3,325.3 207.3,327.7 207.3,329.3 186.8,313.4 "/>
<polygon class="st3" points="186.8,333.2 207.3,349.1 207.3,352.3 186.5,337.2 "/>
<polygon class="st3" points="186.5,357 207.3,371.6 207.3,375.9 186.5,362 "/>
<polygon class="st3" points="186.8,380 207.3,396.6 207.7,400.6 186.8,384.4 "/>
<polygon class="st3" points="187.1,406.5 208.1,420.9 202,420.9 187.1,410.3 "/>
<polygon class="st5" points="187.1,406.5 208.1,420.9 202,420.9 187.1,410.3 "/>
<polygon class="st3" points="213,251.5 219.8,248.1 223.2,249.2 216.1,252.5 "/>
<polygon class="st3" points="225,255.5 231.5,251.9 235.2,253.2 227.7,256.4 "/>
<polygon class="st3" points="236.4,259.3 243.4,255.9 246.3,256.8 238.9,260.1 "/>
<polygon class="st3" points="248.7,263.3 255.1,259.8 258.7,260.9 251.5,264.2 "/>
<polygon class="st3" points="260.8,267.3 268,264.2 272.1,265.4 264.4,268.5 "/>
<polygon class="st3" points="185.5,313.3 186.8,313.4 186.5,309.8 "/>
<polygon class="st3" points="186.2,325.1 207.3,309.4 207.3,313.4 186.6,329.3 "/>
<polygon class="st3" points="186.8,348.5 207.6,333.2 207.6,337.4 186.8,352.3 "/>
<polygon class="st3" points="186.8,372.4 207.7,356.3 207.7,361.3 186.8,375.9 "/>
<polygon class="st3" points="187,395.3 208.1,380 207.9,384.2 187,399.7 "/>
<polygon class="st3" points="205.3,374.6 208.1,376.6 208.1,372.2 207.3,371.6 "/>
<polygon class="st3" points="182.5,424 187,424 187.2,422.5 "/>
<polygon class="st3" points="187.2,420.4 207.7,405 207.7,409.4 190.3,422.5 187,424 "/>
<polygon class="st3" points="206.7,396.1 208.1,397 207.7,400.6 "/>
<g>
	<defs>
		<rect id="SVGID_5_" width="595.3" height="841.9"/>
	</defs>
	<clipPath id="SVGID_6_">
		<use xlink:href="#SVGID_5_"  style="overflow:visible;"/>
	</clipPath>
	<g class="st6">
		<text transform="matrix(0.82 0 -0.6642 0.9515 6.6169 514.2631)"><tspan x="0" y="0" class="st7 st8 st9">CONSTR</tspan><tspan x="317.5" y="0" class="st7 st8 st9">U</tspan><tspan x="376" y="0" class="st7 st8 st9">C</tspan><tspan x="428" y="0" class="st7 st8 st9">T</tspan><tspan x="481.4" y="0" class="st7 st8 st9">OR</tspan><tspan x="594.7" y="0" class="st7 st8 st9">A</tspan></text>
	</g>
	<g class="st6">
		<text transform="matrix(0.9397 0 -0.3636 0.9991 197.8191 597.7448)"><tspan x="0" y="0" class="st3 st8 st10">A</tspan><tspan x="59.1" y="0" class="st3 st8 st10">I</tspan><tspan x="90" y="0" class="st3 st8 st10">E</tspan></text>
	</g>
</g>
</svg>
